<svg id="Layer_1" data-name="Layer 1" xmlns="http://www.w3.org/2000/svg" viewBox="0 0 625.89 55.54"><defs><style>.cls-1{fill:#fff;}</style></defs><title>header-logo</title><path class="cls-1" d="M5.73,26.89H8.06l.3,4.63h.13c2.71-3,6.11-5.38,9.44-5.38,4.79,0,7.18,2.41,8.25,6.09,3.39-3.73,6.69-6.09,10.13-6.09,5.95,0,8.93,3.74,8.93,11.45V56.75H42.49V38c0-6.34-2.11-9.34-6.69-9.34-2.81,0-5.64,1.86-8.94,5.6V56.75H24.11V38c0-6.34-2.11-9.34-6.69-9.34-2.7,0-5.64,1.86-8.94,5.6V56.75H5.73Z" transform="translate(-5.73 -14.8)"/><path class="cls-1" d="M55.08,69.72l.63-2.38a7.44,7.44,0,0,0,2.44.49c3.64,0,6.13-3.37,7.65-7.93l.82-2.59L54.36,26.89h3l7.2,18.76c1,2.53,2.16,5.72,3.25,8.39H68c1-2.65,1.91-5.85,2.77-8.39l6.35-18.76H80L68.17,60.5c-1.66,5-4.68,9.84-10,9.84A7.7,7.7,0,0,1,55.08,69.72Z" transform="translate(-5.73 -14.8)"/><path class="cls-1" d="M89.86,15.77h2.86v41H89.86Z" transform="translate(-5.73 -14.8)"/><path class="cls-1" d="M107.61,26.89h2.32l.3,4.62h.14c3-3,6.16-5.37,10.27-5.37,6.17,0,9,3.74,9,11.45V56.75h-2.75V38c0-6.34-2-9.34-6.8-9.34-3.56,0-6.13,1.87-9.76,5.6V56.75h-2.75Z" transform="translate(-5.73 -14.8)"/><path class="cls-1" d="M138.79,26.89h3l6.71,18.7c1,2.89,2.06,5.9,3,8.58h.24c1-2.68,2.06-5.69,3-8.58l6.71-18.7h2.81l-11,29.86H150Z" transform="translate(-5.73 -14.8)"/><path class="cls-1" d="M171.31,41.87c0-9.74,6.33-15.73,13-15.73,7.07,0,11.43,5,11.43,13.82a13.06,13.06,0,0,1-.16,2.24H174.13c.1,7.53,4.51,12.92,11.24,12.92a13.41,13.41,0,0,0,8-2.65l1.14,2.09a16.42,16.42,0,0,1-9.42,2.93C177.49,57.49,171.31,51.63,171.31,41.87Zm21.86-1.94c0-7.62-3.46-11.41-8.82-11.41-5,0-9.61,4.27-10.23,11.41Z" transform="translate(-5.73 -14.8)"/><path class="cls-1" d="M203.23,53.36l1.59-2c2.53,2.12,5.24,3.78,9.49,3.78,4.7,0,7.14-2.75,7.14-5.89,0-3.75-3.87-5.39-7.31-6.63-4.5-1.6-9.52-3.43-9.52-8.53,0-4.31,3.41-8,9.63-8a14,14,0,0,1,8.53,3.1l-1.48,2a11.38,11.38,0,0,0-7.13-2.72c-4.65,0-6.76,2.68-6.76,5.44,0,3.4,3.52,4.7,7.08,6,4.62,1.76,9.75,3.28,9.75,9.1,0,4.5-3.6,8.42-10.07,8.42A17.06,17.06,0,0,1,203.23,53.36Z" transform="translate(-5.73 -14.8)"/><path class="cls-1" d="M234.71,48.5V29.29H230V27.15l4.73-.26.35-8.65h2.34v8.65h8.65v2.4h-8.65V48.71c0,3.81.95,6.38,5.07,6.38a10.79,10.79,0,0,0,3.74-.94l.72,2.22a17,17,0,0,1-4.87,1.12C236.39,57.49,234.71,53.85,234.71,48.5Z" transform="translate(-5.73 -14.8)"/><path class="cls-1" d="M256.51,26.89h2.32l.3,4.63h.14c2.71-3,6.11-5.38,9.44-5.38,4.79,0,7.18,2.41,8.24,6.09,3.39-3.73,6.69-6.09,10.14-6.09,5.94,0,8.93,3.74,8.93,11.45V56.75h-2.75V38c0-6.34-2.12-9.34-6.69-9.34-2.81,0-5.65,1.86-8.94,5.6V56.75h-2.75V38c0-6.34-2.12-9.34-6.69-9.34-2.7,0-5.65,1.86-8.94,5.6V56.75h-2.75Z" transform="translate(-5.73 -14.8)"/><path class="cls-1" d="M307.61,41.87c0-9.74,6.33-15.73,13-15.73,7.08,0,11.43,5,11.43,13.82a13.06,13.06,0,0,1-.16,2.24H310.43c.1,7.53,4.52,12.92,11.24,12.92a13.46,13.46,0,0,0,8-2.65l1.13,2.09a16.42,16.42,0,0,1-9.42,2.93C313.79,57.49,307.61,51.63,307.61,41.87Zm21.86-1.94c0-7.62-3.46-11.41-8.82-11.41-5,0-9.61,4.27-10.23,11.41Z" transform="translate(-5.73 -14.8)"/><path class="cls-1" d="M343.25,26.89h2.33l.3,4.62H346c3.05-3,6.16-5.37,10.27-5.37,6.17,0,9,3.74,9,11.45V56.75h-2.75V38c0-6.34-2-9.34-6.8-9.34-3.55,0-6.13,1.87-9.76,5.6V56.75h-2.75Z" transform="translate(-5.73 -14.8)"/><path class="cls-1" d="M380.11,48.5V29.29h-4.66V27.15l4.72-.26.35-8.65h2.34v8.65h8.66v2.4h-8.66V48.71c0,3.81,1,6.38,5.07,6.38a10.84,10.84,0,0,0,3.75-.94l.72,2.22a17.18,17.18,0,0,1-4.88,1.12C381.79,57.49,380.11,53.85,380.11,48.5Z" transform="translate(-5.73 -14.8)"/><path class="cls-1" d="M411.05,18.23H398V15.77H427v2.46h-13V56.75h-2.86Z" transform="translate(-5.73 -14.8)"/><path class="cls-1" d="M436.56,17.24a2.5,2.5,0,0,1,5,0,2.5,2.5,0,0,1-5,0Zm1.07,9.65h2.75V56.75h-2.75Z" transform="translate(-5.73 -14.8)"/><path class="cls-1" d="M455,26.89h2.33l.3,4.63h.13c2.71-3,6.11-5.38,9.44-5.38,4.79,0,7.18,2.41,8.25,6.09,3.39-3.73,6.69-6.09,10.13-6.09,6,0,8.93,3.74,8.93,11.45V56.75h-2.75V38c0-6.34-2.11-9.34-6.69-9.34-2.81,0-5.64,1.86-8.94,5.6V56.75h-2.75V38c0-6.34-2.11-9.34-6.69-9.34-2.7,0-5.64,1.86-8.94,5.6V56.75H455Z" transform="translate(-5.73 -14.8)"/><path class="cls-1" d="M506.05,41.87c0-9.74,6.33-15.73,13-15.73,7.08,0,11.43,5,11.43,13.82a13,13,0,0,1-.15,2.24H508.88c.1,7.53,4.51,12.92,11.24,12.92a13.45,13.45,0,0,0,8-2.65l1.13,2.09a16.41,16.41,0,0,1-9.41,2.93C512.23,57.49,506.05,51.63,506.05,41.87Zm21.87-1.94c0-7.62-3.46-11.41-8.82-11.41-5.05,0-9.62,4.27-10.24,11.41Z" transform="translate(-5.73 -14.8)"/><path class="cls-1" d="M539.1,55.23a2,2,0,1,1,2,2.08A2,2,0,0,1,539.1,55.23Z" transform="translate(-5.73 -14.8)"/><path class="cls-1" d="M550.37,45.59c0-7.49,4.79-11.8,10.23-11.8a9.25,9.25,0,0,1,6.56,2.76L566,38a7.68,7.68,0,0,0-5.3-2.38c-4.58,0-8.11,4.09-8.11,10s3.21,9.9,8.08,9.9a8.91,8.91,0,0,0,6-2.59l1.06,1.45a10.67,10.67,0,0,1-7.15,3C554.75,57.31,550.37,53,550.37,45.59Z" transform="translate(-5.73 -14.8)"/><path class="cls-1" d="M572.83,45.59c0-7.49,4.67-11.8,10.06-11.8s10.05,4.31,10.05,11.8-4.67,11.72-10.05,11.72S572.83,53,572.83,45.59Zm17.95,0c0-5.89-3.37-10-7.89-10S575,39.7,575,45.59s3.36,9.9,7.89,9.9S590.78,51.49,590.78,45.59Z" transform="translate(-5.73 -14.8)"/><path class="cls-1" d="M602,34.35h1.74l.23,3.48h.1c2-2.28,4.58-4,7.08-4,3.59,0,5.38,1.81,6.18,4.57,2.54-2.79,5-4.57,7.6-4.57,4.46,0,6.7,2.81,6.7,8.59V56.75h-2.06V42.65c0-4.74-1.59-7-5-7-2.11,0-4.23,1.4-6.71,4.21V56.75h-2.06V42.65c0-4.74-1.58-7-5-7-2,0-4.24,1.4-6.71,4.21V56.75H602Z" transform="translate(-5.73 -14.8)"/></svg>