<svg id="Layer_1" data-name="Layer 1" xmlns="http://www.w3.org/2000/svg" viewBox="0 0 699 73.68"><defs><style>.cls-1{fill:#ccc;}</style></defs><title>header-logo</title><rect class="cls-1" y="42.36" width="699" height="13"/><path d="M37.68,24.56c1.76-3.12,4.16-4.64,7.44-4.64a7.5,7.5,0,0,1,7.6,5.28c1.92-3.6,4.4-5.28,7.84-5.28,5.12,0,8.32,3.6,8.32,9.28V58H64.72V29.44c0-3.52-2.16-6.08-5.28-6.08a6.34,6.34,0,0,0-6.08,6.32V58H49.2V29.44c0-3.6-2.16-6.08-5.2-6.08-3.52,0-6.24,2.88-6.24,6.72V58H33.6V20.4h4.08Z" transform="translate(-5 -2.64)"/><path d="M82.4,76.32l4.72-18L78,20.4h4.72L89.52,52l7.76-31.6H102L86.48,76.32Z" transform="translate(-5 -2.64)"/><path d="M110,54.56h5.68V6.08H110V2.64h15.52V6.08h-5.68V54.56h5.68V58H110Z" transform="translate(-5 -2.64)"/><path d="M152.08,29.44a5.79,5.79,0,0,0-5.6-6.08,6.49,6.49,0,0,0-6.4,6.72V58h-4.16V20.4H140v4.16a8.21,8.21,0,0,1,7.6-4.64c5.2,0,8.64,3.68,8.64,9.28V58h-4.16Z" transform="translate(-5 -2.64)"/><path d="M174.32,58l-8.88-37.6h4.64l7.2,33.92L185,20.4h4.64L180,58Z" transform="translate(-5 -2.64)"/><path d="M214.88,56.88a12.14,12.14,0,0,1-6.08,1.6c-5.92,0-10-3.84-10-9.36V29.2c0-5.44,4.16-9.28,10-9.28,5.68,0,9.92,3.92,9.92,9.28V40H203v9a5.89,5.89,0,0,0,5.76,6,6.43,6.43,0,0,0,3.84-1.36Zm-.16-27.52a5.87,5.87,0,0,0-5.92-6,5.75,5.75,0,0,0-5.76,6v7.2h11.68Z" transform="translate(-5 -2.64)"/><path d="M243.35,24.88a5.79,5.79,0,0,0-3.92-1.44,5.59,5.59,0,0,0-5.84,5.68c0,2.48,1.2,3.92,6.16,7.52,6.88,4.88,8.88,7.76,8.88,12.48,0,5.52-4.08,9.36-9.92,9.36s-9.6-3.52-10-9.12h4.08A5.92,5.92,0,0,0,244.63,49c0-3.44-1.6-5.52-7.44-9.52-6.16-4.24-7.68-6.32-7.68-10.24,0-5.68,3.92-9.36,9.92-9.36a10.36,10.36,0,0,1,6.16,1.84Z" transform="translate(-5 -2.64)"/><path d="M277.27,56.64a10.28,10.28,0,0,1-6.08,1.84c-6,0-10-3.76-10-9.36V23.68h-5V20.4h5V14.8l4.08-1.12V20.4h8.08v3.36h-8.08V49a6,6,0,0,0,5.92,6,5.79,5.79,0,0,0,3.92-1.44Z" transform="translate(-5 -2.64)"/><path d="M289.35,24.56c1.76-3.12,4.16-4.64,7.44-4.64a7.5,7.5,0,0,1,7.6,5.28c1.92-3.6,4.4-5.28,7.84-5.28,5.12,0,8.32,3.6,8.32,9.28V58h-4.16V29.44c0-3.52-2.16-6.08-5.28-6.08A6.34,6.34,0,0,0,305,29.68V58h-4.16V29.44c0-3.6-2.16-6.08-5.2-6.08-3.52,0-6.24,2.88-6.24,6.72V58h-4.16V20.4h4.08Z" transform="translate(-5 -2.64)"/><path d="M347.83,56.88a12.14,12.14,0,0,1-6.08,1.6c-5.92,0-10-3.84-10-9.36V29.2c0-5.44,4.16-9.28,10-9.28,5.68,0,9.92,3.92,9.92,9.28V40H335.91v9a5.89,5.89,0,0,0,5.76,6,6.43,6.43,0,0,0,3.84-1.36Zm-.16-27.52a5.87,5.87,0,0,0-5.92-6,5.75,5.75,0,0,0-5.76,6v7.2h11.68Z" transform="translate(-5 -2.64)"/><path d="M379,29.44a5.79,5.79,0,0,0-5.6-6.08,6.49,6.49,0,0,0-6.4,6.72V58h-4.16V20.4H367v4.16a8.21,8.21,0,0,1,7.6-4.64c5.2,0,8.64,3.68,8.64,9.28V58H379Z" transform="translate(-5 -2.64)"/><path d="M413,56.64A10.28,10.28,0,0,1,407,58.48c-6,0-10-3.76-10-9.36V23.68h-5V20.4h5V14.8L401,13.68V20.4h8.08v3.36H401V49A6,6,0,0,0,407,55a5.79,5.79,0,0,0,3.92-1.44Z" transform="translate(-5 -2.64)"/><path d="M431.75,58h-4.24V6.08H419V2.64h21.2V6.08h-8.48Z" transform="translate(-5 -2.64)"/><path d="M452.15,9.84a3,3,0,1,1-3-3A3,3,0,0,1,452.15,9.84ZM447,20.4h4.24V58H447Z" transform="translate(-5 -2.64)"/><path d="M466.55,24.56c1.76-3.12,4.16-4.64,7.44-4.64a7.5,7.5,0,0,1,7.6,5.28c1.92-3.6,4.4-5.28,7.84-5.28,5.12,0,8.32,3.6,8.32,9.28V58h-4.16V29.44c0-3.52-2.16-6.08-5.28-6.08a6.34,6.34,0,0,0-6.08,6.32V58h-4.16V29.44c0-3.6-2.16-6.08-5.2-6.08-3.52,0-6.24,2.88-6.24,6.72V58h-4.16V20.4h4.08Z" transform="translate(-5 -2.64)"/><path d="M525,56.88a12.14,12.14,0,0,1-6.08,1.6c-5.92,0-10-3.84-10-9.36V29.2c0-5.44,4.16-9.28,10-9.28,5.68,0,9.92,3.92,9.92,9.28V40H513.11v9a5.89,5.89,0,0,0,5.76,6,6.43,6.43,0,0,0,3.84-1.36Zm-.16-27.52a5.87,5.87,0,0,0-5.92-6,5.75,5.75,0,0,0-5.76,6v7.2h11.68Z" transform="translate(-5 -2.64)"/><path d="M543.43,55.84a2.68,2.68,0,0,1-2.64,2.52,2.54,2.54,0,0,1-2.52-2.52,2.6,2.6,0,0,1,2.52-2.64A2.75,2.75,0,0,1,543.43,55.84Z" transform="translate(-5 -2.64)"/><path d="M562.93,57.16a9.43,9.43,0,0,1-4.56,1.2c-4.38,0-7.44-2.88-7.44-7.08V36.46c0-4.14,3.06-7,7.38-7a8,8,0,0,1,5.58,2.16,6.39,6.39,0,0,1,2,4.68h-3.06a4.23,4.23,0,0,0-4.44-4.2,4.39,4.39,0,0,0-4.38,4.5V51.22a4.42,4.42,0,0,0,4.32,4.5,4.82,4.82,0,0,0,2.88-1Z" transform="translate(-5 -2.64)"/><path d="M573.07,36.46c0-4.14,3.06-7,7.44-7s7.5,2.88,7.5,7v14.7c0,4.38-2.94,7.2-7.5,7.2s-7.44-2.76-7.44-7.2Zm3.06,14.46c0,2.94,1.74,4.86,4.38,4.86s4.38-1.92,4.38-4.86V36.58a4.38,4.38,0,0,0-4.32-4.5,4.52,4.52,0,0,0-4.44,4.5Z" transform="translate(-5 -2.64)"/><path d="M599.46,32.92A6.06,6.06,0,0,1,605,29.44a5.62,5.62,0,0,1,5.7,4c1.44-2.7,3.3-4,5.88-4,3.84,0,6.24,2.7,6.24,7V58h-3.12V36.58c0-2.64-1.62-4.56-4-4.56a4.76,4.76,0,0,0-4.56,4.74V58H608.1V36.58c0-2.7-1.62-4.56-3.89-4.56a4.78,4.78,0,0,0-4.69,5V58h-3.11V29.8h3.05Z" transform="translate(-5 -2.64)"/></svg>