<svg xmlns="http://www.w3.org/2000/svg" viewBox="0 0 361.22 92.81"><defs><style>.cls-1{fill:#e5e5e5;}</style></defs><title>Asset 1</title><g id="Layer_2" data-name="Layer 2"><g id="Layer_1-2" data-name="Layer 1"><path class="cls-1" d="M9.23,10.79a1.49,1.49,0,0,1,1.55-1.18H12.5a1.2,1.2,0,0,1,1.28,1.23q1.47,15.53.92,22.64L28.4,10.63a1.78,1.78,0,0,1,1.6-1h1.78a1,1,0,0,1,.84.52,1.48,1.48,0,0,1,.12,1.15L23.59,47.21A1.5,1.5,0,0,1,22,48.39H20.43a1,1,0,0,1-.95-.48,1.58,1.58,0,0,1-.13-1.17l6.18-24.21q-1.86,3.27-5.21,8.54t-4.24,6.7c-.9,1.45-1.8,2.15-2.69,2.09l-1.07,0c-1-.05-1.42-.76-1.33-2.14a124.64,124.64,0,0,0-.32-15.51L4.29,47.21A1.48,1.48,0,0,1,2.7,48.39H1.13a1,1,0,0,1-.94-.48,1.49,1.49,0,0,1-.13-1.17Z" transform="translate(0 -9.03)"/><path class="cls-1" d="M47.11,28.28a147.69,147.69,0,0,0,10.72-18c.23-.53.76-.76,1.6-.71l1.67.21a.93.93,0,0,1,.85.57,1.62,1.62,0,0,1-.22,1.36,198.4,198.4,0,0,1-13.84,21L44.21,47.21a1.48,1.48,0,0,1-1.6,1.18H41.07a1,1,0,0,1-.94-.48A1.53,1.53,0,0,1,40,46.74L43.74,32a86.4,86.4,0,0,0-.83-10.06,75.32,75.32,0,0,0-1.42-8.68c-.4-1.44-.48-2.38-.24-2.84a1.35,1.35,0,0,1,1.15-.73l1.49-.21A1.72,1.72,0,0,1,45,9.64a1.68,1.68,0,0,1,.48,1.09A104,104,0,0,1,47.11,28.28Z" transform="translate(0 -9.03)"/><path class="cls-1" d="M89.05,10.79a1.48,1.48,0,0,1,1.6-1.18h1.56a1,1,0,0,1,.93.5,1.54,1.54,0,0,1,.12,1.17L84.11,47.21a1.48,1.48,0,0,1-1.6,1.18H80.94a1,1,0,0,1-.94-.48,1.58,1.58,0,0,1-.13-1.17Z" transform="translate(0 -9.03)"/><path class="cls-1" d="M105.56,10.79a1.48,1.48,0,0,1,1.54-1.18h1.63c.71,0,1.17.56,1.38,1.67l4.73,27.12,7-27.61a1.5,1.5,0,0,1,1.62-1.18H125a1,1,0,0,1,.94.5,1.54,1.54,0,0,1,.14,1.17L117,47.21a1.5,1.5,0,0,1-1.62,1.18h-1.91a.81.81,0,0,1-.86-.63,4.87,4.87,0,0,1-.14-.65c0-.18-.05-.3-.07-.37l-4.73-27-7,27.48A1.48,1.48,0,0,1,99,48.39H97.46a1,1,0,0,1-.95-.48,1.58,1.58,0,0,1-.13-1.17Z" transform="translate(0 -9.03)"/><path class="cls-1" d="M137.74,9.71q1.41,0,1.23,1.47l-2.17,32.5L153,10.73a1.87,1.87,0,0,1,2-1.07l1.18.11c1.18.08,1.56.76,1.12,2L139.44,46.25a3.54,3.54,0,0,1-3.22,2.14l-1.65,0a1.82,1.82,0,0,1-1.64-.78,3.32,3.32,0,0,1-.5-2.17l1.88-34.6c.09-.78.62-1.18,1.6-1.18Z" transform="translate(0 -9.03)"/><path class="cls-1" d="M171.46,48.39H158.62a1,1,0,0,1-1-.48,1.58,1.58,0,0,1-.13-1.17L166,13.32H163.9c-.54,0-.87-.08-1-.25s-.12-.55,0-1.16l.34-1.23a1.57,1.57,0,0,1,.45-.89,1.87,1.87,0,0,1,1-.18h17.47a1.29,1.29,0,0,1,1,.27c.15.19.16.54,0,1.06l-.4,1.36a1.22,1.22,0,0,1-1.33,1H170.41L167.3,25.53h9.46a.72.72,0,0,1,.68.36,1.1,1.1,0,0,1,.08.87l-.39,1.34a1.42,1.42,0,0,1-1.59,1.12h-9.18l-4,15.48h10.27a.72.72,0,0,1,.68.36,1.1,1.1,0,0,1,.08.87l-.36,1.34A1.45,1.45,0,0,1,171.46,48.39Z" transform="translate(0 -9.03)"/><path class="cls-1" d="M200.78,9a5.07,5.07,0,0,1,4.92,2.85c1,1.91,1.44,4.63,1.44,8.19,0,.89-.3,1.42-.89,1.59l-1.89.61a1,1,0,0,1-.86-.16,1.08,1.08,0,0,1-.42-1c0-4.72-.76-7.44-2.3-8.16a2.81,2.81,0,0,0-2.56.17,8,8,0,0,0-3,3.45,13.34,13.34,0,0,0-1.65,6.24A3.48,3.48,0,0,0,194,25a4,4,0,0,0,2,1.27l2.2.76c2.1.71,3.49,1.58,4.15,2.61a8.79,8.79,0,0,1,.89,4.56A16,16,0,0,1,201.6,41,16.47,16.47,0,0,1,197,46.91a9.41,9.41,0,0,1-6,2.34q-6.33,0-6.33-10.27v-.19q0-2,.81-2.25l2-.62a.81.81,0,0,1,.87.07,1.16,1.16,0,0,1,.36.95,30.26,30.26,0,0,0,.49,6.34,3.73,3.73,0,0,0,1.65,2.7,3.5,3.5,0,0,0,2.09-.36,9,9,0,0,0,3.9-4,15.75,15.75,0,0,0,2-8.29,2.58,2.58,0,0,0-1.57-2.25,15.61,15.61,0,0,0-2.22-.84l-2.25-.7a5.61,5.61,0,0,1-2.62-1.7,5,5,0,0,1-1.1-3.4,16.35,16.35,0,0,1,.88-4.88,22.47,22.47,0,0,1,2.35-5.09,13.28,13.28,0,0,1,3.72-3.89A8.12,8.12,0,0,1,200.78,9Z" transform="translate(0 -9.03)"/><path class="cls-1" d="M237.22,13.48H229l-8.63,33.73a1.48,1.48,0,0,1-1.59,1.18h-1.55a1,1,0,0,1-.94-.48,1.58,1.58,0,0,1-.13-1.17l8.47-33.26h-8.47c-1,0-1.4-.41-1.18-1.23l.37-1.57a1.28,1.28,0,0,1,.48-.87,2.19,2.19,0,0,1,1.11-.2h20.9c1.08,0,1.51.51,1.28,1.52l-.26,1.23C238.73,13.1,238.18,13.48,237.22,13.48Z" transform="translate(0 -9.03)"/><path class="cls-1" d="M247.82,10.79a1.48,1.48,0,0,1,1.54-1.18h1.73a1.2,1.2,0,0,1,1.28,1.23q1.47,15.53.92,22.64L267,10.63a1.77,1.77,0,0,1,1.59-1h1.78a1,1,0,0,1,.85.52,1.53,1.53,0,0,1,.12,1.15l-9.15,35.93a1.5,1.5,0,0,1-1.62,1.18H259a1,1,0,0,1-.94-.48,1.58,1.58,0,0,1-.13-1.17l6.17-24.21q-1.85,3.27-5.2,8.54t-4.24,6.7c-.9,1.45-1.8,2.15-2.69,2.09l-1.07,0c-1-.05-1.42-.76-1.34-2.14a122.36,122.36,0,0,0-.31-15.51l-6.38,25.05a1.48,1.48,0,0,1-1.6,1.18h-1.56a1,1,0,0,1-.95-.48,1.58,1.58,0,0,1-.13-1.17Z" transform="translate(0 -9.03)"/><path class="cls-1" d="M288,48.39H275.16a1,1,0,0,1-.94-.48,1.53,1.53,0,0,1-.13-1.17l8.5-33.42h-2.15c-.54,0-.87-.08-1-.25s-.12-.55,0-1.16l.34-1.23a1.64,1.64,0,0,1,.45-.89,1.87,1.87,0,0,1,1-.18h17.47a1.27,1.27,0,0,1,1,.27c.15.19.16.54,0,1.06l-.39,1.36a1.23,1.23,0,0,1-1.34,1H287l-3.11,12.21h9.47a.73.73,0,0,1,.68.36,1.15,1.15,0,0,1,.08.87l-.4,1.34a1.42,1.42,0,0,1-1.59,1.12H282.9L279,44.7h10.28a.73.73,0,0,1,.68.36,1.14,1.14,0,0,1,.08.87l-.37,1.34A1.44,1.44,0,0,1,288,48.39Z" transform="translate(0 -9.03)"/><path class="cls-1" d="M309.09,10.79a1.48,1.48,0,0,1,1.54-1.18h1.62c.71,0,1.18.56,1.39,1.67l4.73,27.12,7-27.61A1.5,1.5,0,0,1,327,9.61h1.54a1,1,0,0,1,.94.5,1.54,1.54,0,0,1,.13,1.17l-9.15,35.93a1.5,1.5,0,0,1-1.62,1.18H317a.82.82,0,0,1-.87-.63c-.07-.26-.11-.48-.14-.65l-.06-.37-4.74-27-7,27.48a1.48,1.48,0,0,1-1.59,1.18H301a1,1,0,0,1-.94-.48,1.53,1.53,0,0,1-.13-1.17Z" transform="translate(0 -9.03)"/><path class="cls-1" d="M359.25,13.48H351l-8.63,33.73a1.48,1.48,0,0,1-1.59,1.18h-1.54a1,1,0,0,1-.95-.48,1.58,1.58,0,0,1-.13-1.17l8.48-33.26H338.2q-1.51,0-1.17-1.23l.36-1.57a1.33,1.33,0,0,1,.49-.87,2.14,2.14,0,0,1,1.11-.2h20.89c1.08,0,1.51.51,1.28,1.52l-.26,1.23C360.76,13.1,360.21,13.48,359.25,13.48Z" transform="translate(0 -9.03)"/><path class="cls-1" d="M27.09,66.48H18.88l-8.63,33.73a1.48,1.48,0,0,1-1.59,1.18H7.12a1,1,0,0,1-1-.48A1.58,1.58,0,0,1,6,99.74l8.48-33.26H6q-1.51,0-1.17-1.23l.36-1.57a1.33,1.33,0,0,1,.49-.87,2.16,2.16,0,0,1,1.11-.2H27.72c1.08,0,1.51.51,1.28,1.52l-.26,1.23C28.6,66.11,28.05,66.48,27.09,66.48Z" transform="translate(0 -9.03)"/><path class="cls-1" d="M37.7,63.79a1.48,1.48,0,0,1,1.59-1.18h1.57a1,1,0,0,1,.93.5,1.64,1.64,0,0,1,.12,1.17l-9.16,35.93a1.48,1.48,0,0,1-1.59,1.18H29.59a1,1,0,0,1-.94-.48,1.53,1.53,0,0,1-.13-1.17Z" transform="translate(0 -9.03)"/><path class="cls-1" d="M54.21,63.79a1.48,1.48,0,0,1,1.54-1.18h1.73c.75,0,1.17.41,1.28,1.23q1.45,15.52.91,22.64L73.38,63.63a1.75,1.75,0,0,1,1.59-1h1.78a1,1,0,0,1,.85.52,1.57,1.57,0,0,1,.12,1.15l-9.16,35.93a1.5,1.5,0,0,1-1.62,1.18H65.4a1,1,0,0,1-.94-.48,1.53,1.53,0,0,1-.13-1.17L70.5,75.53q-1.86,3.27-5.21,8.54t-4.23,6.7c-.91,1.45-1.81,2.15-2.69,2.1l-1.08-.06c-1,0-1.42-.76-1.33-2.14a124.28,124.28,0,0,0-.31-15.51l-6.38,25a1.49,1.49,0,0,1-1.6,1.18H46.1a1,1,0,0,1-.94-.48A1.53,1.53,0,0,1,45,99.74Z" transform="translate(0 -9.03)"/><path class="cls-1" d="M94.38,101.39H81.54a1,1,0,0,1-.94-.48,1.58,1.58,0,0,1-.13-1.17L89,66.32H86.83c-.54,0-.88-.08-1-.25s-.11-.55,0-1.16l.34-1.23a1.64,1.64,0,0,1,.44-.89,1.94,1.94,0,0,1,1-.18H105.1a1.3,1.3,0,0,1,1,.27,1.33,1.33,0,0,1,0,1.06l-.39,1.36a1.22,1.22,0,0,1-1.33,1H93.34L90.23,78.54h9.46a.71.71,0,0,1,.68.35,1.1,1.1,0,0,1,.08.87l-.39,1.34a1.43,1.43,0,0,1-1.6,1.12H89.28L85.34,97.7H95.61a.72.72,0,0,1,.68.36,1.1,1.1,0,0,1,.08.87L96,100.27A1.44,1.44,0,0,1,94.38,101.39Z" transform="translate(0 -9.03)"/><path class="cls-1" d="M148.9,62l-10.17,35.3a15.56,15.56,0,0,0,3.22-3.5.89.89,0,0,1,1.33-.37l1.28.87a.82.82,0,0,1,.26,1.33,25.32,25.32,0,0,1-4,4,11.77,11.77,0,0,1-4.37,2,.75.75,0,0,1-.62-.11.78.78,0,0,1-.35-.47l-1-3a15.64,15.64,0,0,1-2.08,2.33,3.49,3.49,0,0,1-2.15,1.15h-.11c-.7,0-1.6-.59-2.71-1.77a5.82,5.82,0,0,1-1.73-3.8q-.1-4.14,2.35-11t4.6-8.78a7.42,7.42,0,0,1,5.15-1.93,6.44,6.44,0,0,1,3.38.94l3.58-13.31a1.5,1.5,0,0,1,1.62-1.18h1.39C148.75,60.75,149.15,61.16,148.9,62Zm-8.57,16.27c-1.73-1-3.17-1.08-4.32-.32q-2.7,1.83-5.23,10.75c-1.2,4.31-1.44,6.93-.7,7.87.38.51.89.55,1.54.13q2.5-1.62,4.51-6A86.57,86.57,0,0,0,140.33,78.25Z" transform="translate(0 -9.03)"/><path class="cls-1" d="M146.23,93.62a28.79,28.79,0,0,1,3-12.42,25.61,25.61,0,0,1,1.93-3.33A16.16,16.16,0,0,1,153,75.82a7.25,7.25,0,0,1,5.36-2.07,4.94,4.94,0,0,1,4.19,2.69q1.09,1.75.95,5.85a29.85,29.85,0,0,1-1.39,8,31.26,31.26,0,0,1-2.78,6.52q-3.09,5.16-7.87,5a4.71,4.71,0,0,1-3.17-1.49,6.58,6.58,0,0,1-1.53-2.63A11.61,11.61,0,0,1,146.23,93.62Zm9.1,2.15A24.72,24.72,0,0,0,159.21,83a13.25,13.25,0,0,0-.33-4.21,1.64,1.64,0,0,0-1.61-1.11,2.71,2.71,0,0,0-2.18,1.13,14.18,14.18,0,0,0-1.9,3.07,27.38,27.38,0,0,0-2.61,11.27c-.08,3.23.48,4.88,1.67,5C153.29,98.1,154.32,97.34,155.33,95.77Z" transform="translate(0 -9.03)"/><path class="cls-1" d="M177.38,65.93l-2.12,8.26h2.82c.41,0,.67.09.79.27a1.15,1.15,0,0,1,0,.91l-.37,1.39a1.38,1.38,0,0,1-1.38,1.17h-2.8l-5.68,22.28a1.47,1.47,0,0,1-1.59,1.18h-1a1.4,1.4,0,0,1-1.22-.5,1.49,1.49,0,0,1-.19-1.23l5.54-21.73h-2.09q-.56,0-.72-.27a1.47,1.47,0,0,1,0-1l.42-1.44a1.19,1.19,0,0,1,1.18-1h2.17l2.12-8.31a1.5,1.5,0,0,1,1.62-1.18h1.33C177.18,64.7,177.57,65.11,177.38,65.93Z" transform="translate(0 -9.03)"/><path class="cls-1" d="M198.26,75.79a7,7,0,0,1,2.3-1.48,4.87,4.87,0,0,1,2.35-.31,5.5,5.5,0,0,1,2.24.82,10.73,10.73,0,0,1,2.56,2.11q1,1.18.42,1.92l-.92,1c-.61.61-1.15.7-1.62.26l-.63-.64c-.36-.38-.67-.68-.91-.9a2.63,2.63,0,0,0-2.09-.81q-1.91.36-4,4.1a29.73,29.73,0,0,0-3.1,7.72,16.33,16.33,0,0,0-.47,6.69,1.79,1.79,0,0,0,1,1.16,2.27,2.27,0,0,0,1.34.46,14.1,14.1,0,0,0,3.61-3.21,1.13,1.13,0,0,1,.78-.46,2.09,2.09,0,0,1,.92.35l.81.52c.42.25.58.54.47.89a8.21,8.21,0,0,1-2.87,3.49,11.89,11.89,0,0,1-3.51,2.29,5.05,5.05,0,0,1-3.22-.81A5.93,5.93,0,0,1,191,98.83a11.41,11.41,0,0,1-.62-6.16,35.85,35.85,0,0,1,1.69-7.1,23.13,23.13,0,0,1,2.35-5.11c.77-1.13,1.42-2,1.94-2.67A18.79,18.79,0,0,1,198.26,75.79Z" transform="translate(0 -9.03)"/><path class="cls-1" d="M205.72,93.62a28.79,28.79,0,0,1,3-12.42,25.61,25.61,0,0,1,1.93-3.33,16.16,16.16,0,0,1,1.83-2.05,7.25,7.25,0,0,1,5.36-2.07A4.94,4.94,0,0,1,222,76.44q1.09,1.75.95,5.85a29.85,29.85,0,0,1-1.39,8,31.26,31.26,0,0,1-2.78,6.52q-3.09,5.16-7.87,5a4.71,4.71,0,0,1-3.17-1.49,6.58,6.58,0,0,1-1.53-2.63A11.61,11.61,0,0,1,205.72,93.62Zm9.1,2.15A24.72,24.72,0,0,0,218.7,83a13.25,13.25,0,0,0-.33-4.21,1.64,1.64,0,0,0-1.61-1.11,2.71,2.71,0,0,0-2.18,1.13,14.18,14.18,0,0,0-1.9,3.07,27.38,27.38,0,0,0-2.61,11.27c-.07,3.23.48,4.88,1.67,5S213.81,97.34,214.82,95.77Z" transform="translate(0 -9.03)"/><path class="cls-1" d="M241.55,79.84c0-.31-.12-.47-.37-.47a1.42,1.42,0,0,0-.87.5,13.13,13.13,0,0,0-1.4,1.75c-.72,1.06-1.55,2.36-2.5,3.88s-2.15,3.42-3.6,5.67q-4,6.21-4.94,7.91l-1,1.8a1.73,1.73,0,0,1-.15.2l-.16.13-.16.09-.14.06a.37.37,0,0,1-.15,0h-1.56c-.84,0-1.14-.46-.89-1.39l6.48-24.42a1.24,1.24,0,0,0,.07-.24c0-.12,0-.2,0-.23a2.11,2.11,0,0,1,.13-.41l.07-.14a.38.38,0,0,1,.1-.13l.11-.09a.38.38,0,0,1,.16-.09,1.14,1.14,0,0,1,.39-.06h2.2a1,1,0,0,1,.88.32,1.83,1.83,0,0,1,0,1.23l-4,13.49L235.8,80a15.64,15.64,0,0,1,3.59-4.27,5.87,5.87,0,0,1,3.26-1.57h1.12q3,0,1.83,4.61l-2.77,10L248,80a14.12,14.12,0,0,1,3.57-4.32,5.85,5.85,0,0,1,3.28-1.46H256c1.52,0,2.23.74,2.15,2.2a21.59,21.59,0,0,1-.34,2.41l-6,21.83a.82.82,0,0,1-.86.76h-2.78a.49.49,0,0,1-.45-.31,1.33,1.33,0,0,1,0-1l5.62-18.39a9,9,0,0,0,.39-1.88c0-.31-.13-.47-.4-.47s-.69.34-1.27,1a37,37,0,0,0-2.63,3.84q-1.76,2.84-3.66,5.81l-2.63,4.14a57.18,57.18,0,0,0-3.55,6.46c-.21.51-.52.76-.92.76H236c-.43,0-.57-.43-.42-1.28l5.63-18.39A9,9,0,0,0,241.55,79.84Z" transform="translate(0 -9.03)"/></g></g></svg>