<svg id="Layer_1" data-name="Layer 1" xmlns="http://www.w3.org/2000/svg" viewBox="0 0 800 270"><defs><style>.cls-1,.cls-2{fill:#eee;}.cls-2{stroke:#000;stroke-miterlimit:10;stroke-width:4px;}</style></defs><title>header-logo</title><rect class="cls-1" width="800" height="270"/><rect class="cls-2" x="5" y="4.9" width="790" height="260.55"/><path d="M37.21,26.36v3.23A26.21,26.21,0,0,1,44.79,23a19.3,19.3,0,0,1,8.92-1.84q10.92,0,16.05,8.47A23.63,23.63,0,0,1,77.45,23a23.06,23.06,0,0,1,10-1.89A23.69,23.69,0,0,1,98.85,23.8a16.07,16.07,0,0,1,7.69,8.49Q108,36,108,43.91V63.12c0,3.06,0,4.92.11,5.59q.56,4,2.87,4a10.44,10.44,0,0,0,2.32-.39,10.53,10.53,0,0,1,2.32-.39q3.86,0,3.86,3.34,0,3.9-4.45,3.9a49.08,49.08,0,0,1-5.08-.39,49.07,49.07,0,0,0-5.18-.39q-1.89,0-5.52.39c-2.41.26-4.25.39-5.51.39q-4.7,0-4.69-3.9,0-3.35,3.57-3.34c.3,0,1,.07,2.23.22a5.78,5.78,0,0,0,1.78.22A2.27,2.27,0,0,0,99,70.5c.33-1.27.54-4.42.61-9.48V46.87q0-7.69-1.16-11.2a10.07,10.07,0,0,0-4.39-5.52,13.5,13.5,0,0,0-7.32-2q-7.89,0-11,5.46Q73.33,38,73.33,48.76v7.92q0,10.47.5,13.09c.33,1.75,1.21,2.62,2.62,2.62a12.26,12.26,0,0,0,2-.22A12,12,0,0,1,80.35,72,3.57,3.57,0,0,1,83,73,3.52,3.52,0,0,1,84,75.57q0,3.62-5.24,3.62a41.42,41.42,0,0,1-5-.44,40,40,0,0,0-5-.45,32.4,32.4,0,0,0-5.13.45,32.33,32.33,0,0,1-4.9.44q-4.58,0-4.57-3.79,0-3.45,3.34-3.45a4.6,4.6,0,0,1,1.9.31,9.16,9.16,0,0,0,2.34.47q2.67,0,2.78-5.72L65,61.75V45.51Q65,35.76,62.35,32T53,28.14q-7.35,0-11.26,5.38-3.22,4.36-3.23,15.23v14.9c0,3,0,4.75.11,5.27q.45,3.81,2.45,3.81a9.35,9.35,0,0,0,2.35-.63,2.31,2.31,0,0,0,.66-.15h.78q4.35,0,4.35,3.67t-5,3.57a41,41,0,0,1-4.69-.33,56,56,0,0,0-6.46-.45c-.89,0-2.53.11-4.91.34q-4.79.44-5.79.44-4.45,0-4.46-3.79,0-3.45,4.31-3.45h.68a3.48,3.48,0,0,0,.69.11l2.83.56a.71.71,0,0,0,.46.11q3.06,0,3.29-5.46V43.86q0-9.48-.5-11.82A2.6,2.6,0,0,0,27,29.7a28.4,28.4,0,0,0-3.12.56,9.51,9.51,0,0,1-1.79.22q-4.12,0-4.12-3.56,0-3.8,4.57-3.79a33.09,33.09,0,0,1,3.34.22,35.3,35.3,0,0,0,3.68.22h2l2.67-.44h.34C36.32,23.13,37.21,24.2,37.21,26.36Z"/><path d="M139.2,33.71,152,71.39l13.6-37.12a7.88,7.88,0,0,0,.56-2.45c0-1.26-.86-1.9-2.57-1.9a7.8,7.8,0,0,0-2.11.23,23.45,23.45,0,0,1-2.35.22q-3.68,0-3.67-3.57c0-2.52,1.59-3.79,4.79-3.79a18.33,18.33,0,0,1,2.23.23l4,.55a23.47,23.47,0,0,0,3.34.23,45.66,45.66,0,0,0,5.58-.5A44.17,44.17,0,0,1,181,23c3.2,0,4.79,1.25,4.79,3.74s-1.22,3.62-3.67,3.62a4.75,4.75,0,0,1-1.68-.22,10.19,10.19,0,0,0-2-.34q-2.12,0-4.35,5.69L158.93,73.4q-5,12.59-9.47,18.28-7.59,9.69-19,9.69a18.61,18.61,0,0,1-11.43-3.45q-4.62-3.47-4.62-8.36a8,8,0,0,1,2-5.63,6.81,6.81,0,0,1,5.24-2.17,6.12,6.12,0,0,1,4.24,1.5A4.83,4.83,0,0,1,127.61,87a4.31,4.31,0,0,1-3.23,4.57Q126,94,130.73,94a15.25,15.25,0,0,0,10.65-4.41q4.73-4.39,4.73-9.86,0-2.79-3-10.37l-12.26-31-1.33-3.57c-1.27-3.34-2.72-5-4.35-5a19,19,0,0,0-2.4.28,17.56,17.56,0,0,1-2.28.28c-2.61,0-3.9-1.19-3.9-3.57S118.28,23,121.7,23a18.29,18.29,0,0,1,2.57.14l4.46.64h.89a8.92,8.92,0,0,0,1.33.12,77.72,77.72,0,0,0,8.59-.51c2.3-.26,3.82-.39,4.57-.39q4.68,0,4.68,3.68t-4.24,3.68a15.21,15.21,0,0,1-2.11-.22,15.9,15.9,0,0,0-2.12-.23,1.39,1.39,0,0,0-1.56,1.57A7.18,7.18,0,0,0,139.2,33.71Z"/><path d="M32.75,105.61q0-8.25-5.68-8.25a9.57,9.57,0,0,0-2.34.22,16.24,16.24,0,0,1-3,.34,3.23,3.23,0,0,1-2.45-1.06,3.67,3.67,0,0,1-1-2.62q0-3.9,4.91-3.9a13.84,13.84,0,0,1,1.56.11l5.91.78a51.76,51.76,0,0,0,6.91.45,57.28,57.28,0,0,0,7.58-.56l5-.67a13.84,13.84,0,0,1,1.56-.11q4.9,0,4.91,3.9a3.67,3.67,0,0,1-1,2.62,3.21,3.21,0,0,1-2.45,1.06,17.79,17.79,0,0,1-3-.34,9.57,9.57,0,0,0-2.34-.22q-5.69,0-5.68,8.25v44.7q0,8.35,5.68,8.36a16,16,0,0,0,2.34-.23,22.64,22.64,0,0,1,3-.33q3.47,0,3.46,3.56,0,4-4.91,4h-.78a2.92,2.92,0,0,0-.78-.11l-5.79-.9a41.41,41.41,0,0,0-6.13-.44,55.1,55.1,0,0,0-8.36.56l-5.13.78a4.07,4.07,0,0,0-.78.11h-.89q-4.8,0-4.8-4c0-2.37,1.16-3.56,3.46-3.56.37,0,1.37.07,3,.22a9.07,9.07,0,0,0,2.34.34q5.68,0,5.68-8.36Z"/><path d="M80.13,112.8V116A21.57,21.57,0,0,1,98,107.5a22.57,22.57,0,0,1,11.37,3.07,16,16,0,0,1,7.24,7.63,26.47,26.47,0,0,1,1.56,9.92V149.3c0,3.2,0,5.09.12,5.69.37,2.52,1.37,3.79,3,3.79a17,17,0,0,0,2.62-.28,14.91,14.91,0,0,1,2.28-.28,3.54,3.54,0,0,1,2.51,1,3.28,3.28,0,0,1,1.06,2.45,3.48,3.48,0,0,1-1.34,2.79,4.9,4.9,0,0,1-3.23,1.12,46.76,46.76,0,0,1-5.13-.45,53.66,53.66,0,0,0-6.69-.45,41.71,41.71,0,0,0-4.79.23c-3.72.44-5.69.67-5.91.67q-4.45,0-4.46-3.91,0-3.45,3.87-3.45a10.61,10.61,0,0,1,2,.22,18.85,18.85,0,0,0,2.73.45q2.73,0,3-6.13v-21a39.4,39.4,0,0,0-.55-8.13,10.75,10.75,0,0,0-4.33-6.58,14.16,14.16,0,0,0-8.33-2.56q-8.88,0-12.77,6.35-2.66,4.35-2.66,14.82v14.83a22,22,0,0,0,.67,6.69A2.44,2.44,0,0,0,84.25,159a10.83,10.83,0,0,0,2.45-.39,11.06,11.06,0,0,1,2.57-.39q3.45,0,3.45,3.73t-4.46,3.63c-.59,0-2.52-.23-5.79-.67a39.6,39.6,0,0,0-5.47-.34,57.24,57.24,0,0,0-6.24.45c-3.27.37-5.12.56-5.57.56-3.12,0-4.68-1.27-4.68-3.79s1.21-3.57,3.63-3.57a12.09,12.09,0,0,1,2.1.33,13.69,13.69,0,0,0,3,.34q3.41,0,3.52-6.47V122.66a14,14,0,0,0-1-5.18,2.63,2.63,0,0,0-2.55-1.39,14.61,14.61,0,0,0-2.33.27,13.77,13.77,0,0,1-2.32.28c-2.73,0-4.09-1.18-4.09-3.56s1.67-3.68,5-3.68a5,5,0,0,1,1.12.11l4.12.45a15.84,15.84,0,0,0,3.12-.28c1.93-.19,2.94-.28,3-.28Q80.13,109.4,80.13,112.8Z"/><path d="M150.68,122.47l13,35,12.6-34.78a16.64,16.64,0,0,0,1.11-4c0-1.63-.78-2.45-2.34-2.45a15.27,15.27,0,0,0-2.62.33,15.4,15.4,0,0,1-2.62.34q-3.67,0-3.68-3.63c0-2.56,1.79-3.84,5.35-3.84h.9a7.2,7.2,0,0,0,.89.08L178,110a12,12,0,0,0,3.23.44,68.86,68.86,0,0,0,7.36-.63,42.5,42.5,0,0,1,4.46-.37q4.78,0,4.79,3.73t-3.9,3.74a4.32,4.32,0,0,1-1.78-.27,11.79,11.79,0,0,0-2.34-.4q-2,0-4.13,5.36L170,161.78c-1.33,3.42-3.6,5.13-6.79,5.13s-5.24-1.71-6.58-5.15l-16.05-41.42q-1.56-4.14-3.68-4.14a12.46,12.46,0,0,0-2.34.33,12.68,12.68,0,0,1-2.34.34q-3.68,0-3.68-3.46,0-4,5.13-4a6.13,6.13,0,0,1,1.33.11l4.69.59a36.77,36.77,0,0,0,4.68.3,51.31,51.31,0,0,0,5.57-.43l3.68-.43a6.91,6.91,0,0,1,1.56-.14q4.91,0,4.9,3.85,0,3.61-4.23,3.62a9.1,9.1,0,0,1-1.9-.14,16,16,0,0,0-2.67-.53c-1.19,0-1.78.52-1.78,1.57a8.18,8.18,0,0,0,.44,2.24Z"/><path d="M250.11,132.36c0,2.83-.19,4.55-.56,5.18s-1.45,1-3.23,1H210.87a3.09,3.09,0,0,0-1.89.39,1.62,1.62,0,0,0-.45,1.28,20,20,0,0,0,5,13.94A16.11,16.11,0,0,0,226,159.67a15.93,15.93,0,0,0,9-2.68,12.21,12.21,0,0,0,5.3-6.8l1-3.23a3.46,3.46,0,0,1,3.68-2.67q4.13,0,4.12,4.23,0,7.24-7.35,12.88A26.82,26.82,0,0,1,225,167q-11.7,0-18.62-7.86T199.5,138q0-13.59,7.36-22.07T226,107.5q10.49,0,17.28,7T250.11,132.36Zm-40.46-2.9c0,1,.81,1.56,2.45,1.56h26.64q2.34,0,2.34-1.56a13.86,13.86,0,0,0-4.46-10.25,14.51,14.51,0,0,0-10.48-4.35,16.81,16.81,0,0,0-11.37,4.51Q209.64,123.89,209.65,129.46Z"/><path d="M281.81,107.5a19.63,19.63,0,0,1,12.44,3.9V111q0-4.12,3.56-4.13c2.46,0,3.68,1.19,3.68,3.57,0,.45-.06,1.56-.18,3.35a26.72,26.72,0,0,0-.37,4.45c0,.9.09,2.2.27,3.91a37.82,37.82,0,0,1,.28,3.9q0,4.23-3.62,4.23t-3.62-3.56V123q-.12-3.34-3.85-5.74a15.81,15.81,0,0,0-8.75-2.4,13.76,13.76,0,0,0-8.58,2.62,7.92,7.92,0,0,0-3.46,6.52q0,7.14,9.81,8.47l6.47.89q18.94,2.56,18.95,15.72a15.89,15.89,0,0,1-6.12,13q-6.11,5-16,5a25.42,25.42,0,0,1-16-5.24v2.11c0,2.68-1.27,4-3.79,4-2.75,0-4.13-1.53-4.13-4.57q0,.78.67-5.8a21.82,21.82,0,0,0,.22-3.12,27.51,27.51,0,0,0-.44-5,20.69,20.69,0,0,1-.45-3.67c0-2.6,1.19-3.91,3.57-3.91,1.56,0,2.54.38,2.95,1.12s.65,2.71.73,5.91,1.74,5.79,5,7.8,7.43,3,12.49,3a14.22,14.22,0,0,0,9-2.79,8.57,8.57,0,0,0,3.56-7q0-7.58-12-8.81-11.48-1.22-17.5-4.51t-6-11.54a15.62,15.62,0,0,1,5.89-12.65Q272.36,107.51,281.81,107.5Z"/><path d="M344.18,149.75v-7.14c.07-3,1.41-4.57,4-4.57s3.91,1.71,3.91,5.13q0,12.15-3.1,16.94-4.22,6.46-13.84,6.47-8.87,0-12.62-5.69c-1.85-2.74-2.77-7.43-2.77-14V120.1c0-1.56-.72-2.34-2.17-2.34H314a4.12,4.12,0,0,1-3-1.17,3.82,3.82,0,0,1-1.2-2.84,3.94,3.94,0,0,1,1.17-2.79,3.54,3.54,0,0,1,2.62-1.23h4.35c1.26,0,1.89-.7,1.89-2.11V96.13q0-4.23,4.35-4.23,4,0,4,4.23v11.93c0,1.12.67,1.67,2,1.67h12.15q4.23,0,4.23,3.9,0,4.13-4.57,4.13H329.69q-1.56,0-1.56,2.34v27.42q0,11.7,7.8,11.7C341.2,159.22,344,156.07,344.18,149.75Z"/><path d="M374.5,112.74V116a26.23,26.23,0,0,1,7.58-6.63A19.43,19.43,0,0,1,391,107.5q10.92,0,16.05,8.47a23.37,23.37,0,0,1,7.69-6.57,23,23,0,0,1,10-1.9,23.86,23.86,0,0,1,11.37,2.68,16.18,16.18,0,0,1,7.69,8.49q1.44,3.69,1.45,11.62V149.5c0,3.06,0,4.92.11,5.59.37,2.68,1.32,4,2.87,4a10.53,10.53,0,0,0,2.32-.39,10.44,10.44,0,0,1,2.32-.39c2.57,0,3.86,1.12,3.86,3.34q0,3.92-4.46,3.91a49.13,49.13,0,0,1-5.07-.39,49.44,49.44,0,0,0-5.18-.39q-1.91,0-5.52.39t-5.52.39q-4.68,0-4.68-3.91c0-2.22,1.19-3.34,3.57-3.34.29,0,1,.08,2.23.22a5.69,5.69,0,0,0,1.78.23,2.29,2.29,0,0,0,2.4-1.9q.49-1.89.61-9.47V133.25q0-7.69-1.17-11.2a10.08,10.08,0,0,0-4.38-5.52,13.55,13.55,0,0,0-7.33-2q-7.87,0-11,5.46-2.43,4.35-2.44,15.16v7.91q0,10.49.51,13.1c.33,1.74,1.2,2.62,2.61,2.62a12.51,12.51,0,0,0,2-.23,13.3,13.3,0,0,1,1.95-.22,3.61,3.61,0,0,1,2.62,1,3.51,3.51,0,0,1,1.05,2.58q0,3.63-5.23,3.63a39.84,39.84,0,0,1-5-.45,40.13,40.13,0,0,0-5-.45,32.18,32.18,0,0,0-5.12.45,31.33,31.33,0,0,1-4.91.45c-3,0-4.57-1.27-4.57-3.79q0-3.47,3.35-3.46a4.72,4.72,0,0,1,1.89.31,8.74,8.74,0,0,0,2.34.47c1.79,0,2.71-1.9,2.79-5.71l.33-5.27V131.89q0-9.75-2.62-13.56t-9.3-3.8q-7.36,0-11.26,5.37-3.24,4.38-3.23,15.24V150c0,3,0,4.74.11,5.26q.44,3.81,2.45,3.81a9.71,9.71,0,0,0,2.34-.62,2.13,2.13,0,0,0,.67-.16h.78q4.35,0,4.35,3.68t-5,3.57a41.34,41.34,0,0,1-4.68-.34,58.21,58.21,0,0,0-6.46-.44c-.9,0-2.53.11-4.91.33q-4.8.45-5.8.45c-3,0-4.45-1.27-4.45-3.79,0-2.31,1.43-3.46,4.31-3.46h.68a2.8,2.8,0,0,0,.68.11l2.84.56a.71.71,0,0,0,.46.11q3.06,0,3.29-5.46V130.24q0-9.47-.5-11.81a2.6,2.6,0,0,0-2.74-2.34,27.92,27.92,0,0,0-3.12.55,9.48,9.48,0,0,1-1.78.23q-4.12,0-4.12-3.57,0-3.8,4.57-3.79a33.27,33.27,0,0,1,3.34.22,35.6,35.6,0,0,0,3.68.23h2l2.68-.45h.33C373.61,109.51,374.5,110.59,374.5,112.74Z"/><path d="M511.82,132.36c0,2.83-.18,4.55-.55,5.18s-1.45,1-3.24,1H472.59a3.13,3.13,0,0,0-1.9.39,1.62,1.62,0,0,0-.44,1.28,20.08,20.08,0,0,0,5,13.94,16.14,16.14,0,0,0,12.49,5.57,15.93,15.93,0,0,0,9-2.68,12.19,12.19,0,0,0,5.29-6.8l1-3.23a3.46,3.46,0,0,1,3.68-2.67c2.74,0,4.12,1.41,4.12,4.23q0,7.24-7.36,12.88A26.8,26.8,0,0,1,486.74,167q-11.7,0-18.61-7.86T461.22,138q0-13.59,7.35-22.07t19.18-8.47a23,23,0,0,1,17.27,7Q511.82,121.55,511.82,132.36Zm-40.46-2.9c0,1,.82,1.56,2.45,1.56h26.64q2.34,0,2.34-1.56a13.82,13.82,0,0,0-4.46-10.25,14.5,14.5,0,0,0-10.47-4.35,16.81,16.81,0,0,0-11.37,4.51Q471.36,123.89,471.36,129.46Z"/><path d="M537.12,112.8V116A21.6,21.6,0,0,1,555,107.5a22.57,22.57,0,0,1,11.37,3.07,16,16,0,0,1,7.24,7.63,26.47,26.47,0,0,1,1.56,9.92V149.3c0,3.2,0,5.09.12,5.69.37,2.52,1.37,3.79,3,3.79a16.75,16.75,0,0,0,2.62-.28,15.14,15.14,0,0,1,2.29-.28,3.54,3.54,0,0,1,2.51,1,3.28,3.28,0,0,1,1.06,2.45,3.48,3.48,0,0,1-1.34,2.79,4.9,4.9,0,0,1-3.23,1.12,46.76,46.76,0,0,1-5.13-.45,53.66,53.66,0,0,0-6.69-.45,41.71,41.71,0,0,0-4.79.23c-3.72.44-5.69.67-5.91.67q-4.46,0-4.46-3.91,0-3.45,3.87-3.45a10.61,10.61,0,0,1,2,.22,18.85,18.85,0,0,0,2.73.45q2.73,0,2.95-6.13v-21a39.4,39.4,0,0,0-.55-8.13,10.75,10.75,0,0,0-4.33-6.58,14.16,14.16,0,0,0-8.33-2.56q-8.88,0-12.77,6.35-2.65,4.35-2.66,14.82v14.83a22,22,0,0,0,.67,6.69,2.44,2.44,0,0,0,2.45,1.78,10.83,10.83,0,0,0,2.45-.39,11.06,11.06,0,0,1,2.56-.39q3.47,0,3.46,3.73t-4.46,3.63c-.59,0-2.53-.23-5.8-.67a39.35,39.35,0,0,0-5.46-.34,57.24,57.24,0,0,0-6.24.45q-4.9.55-5.57.56c-3.12,0-4.68-1.27-4.68-3.79s1.21-3.57,3.63-3.57a12.09,12.09,0,0,1,2.1.33,13.62,13.62,0,0,0,3,.34q3.4,0,3.52-6.47V122.66a14.22,14.22,0,0,0-1-5.18,2.63,2.63,0,0,0-2.55-1.39,14.61,14.61,0,0,0-2.33.27,13.75,13.75,0,0,1-2.33.28c-2.72,0-4.08-1.18-4.08-3.56s1.67-3.68,5-3.68a5,5,0,0,1,1.12.11l4.12.45a15.84,15.84,0,0,0,3.12-.28c1.93-.19,2.94-.28,3-.28C536.05,109.4,537.12,110.53,537.12,112.8Z"/><path d="M622.06,149.75v-7.14c.07-3,1.41-4.57,4-4.57s3.9,1.71,3.9,5.13q0,12.15-3.1,16.94-4.2,6.46-13.83,6.47-8.87,0-12.62-5.69c-1.85-2.74-2.77-7.43-2.77-14V120.1c0-1.56-.72-2.34-2.17-2.34h-3.65a4.16,4.16,0,0,1-3-1.17,3.85,3.85,0,0,1-1.19-2.84,3.94,3.94,0,0,1,1.17-2.79,3.54,3.54,0,0,1,2.62-1.23h4.34c1.27,0,1.9-.7,1.9-2.11V96.13q0-4.23,4.35-4.23,4,0,4,4.23v11.93c0,1.12.67,1.67,2,1.67h12.15q4.25,0,4.24,3.9,0,4.13-4.57,4.13H607.57q-1.56,0-1.56,2.34v27.42q0,11.7,7.8,11.7T622.06,149.75Z"/><path d="M55.94,236.8q0,8.37,5.68,8.36a18.44,18.44,0,0,0,2.68-.28A20,20,0,0,1,67,244.6a3.62,3.62,0,0,1,3.57,3.57q0,3.9-5,3.9h-.66a5.46,5.46,0,0,0-.78-.11l-5.47-.78a49.51,49.51,0,0,0-7-.45,54.88,54.88,0,0,0-7.47.45l-5.57.78a3.54,3.54,0,0,0-.78.11H37q-4.91,0-4.9-3.9c0-2.38,1.18-3.57,3.56-3.57a20,20,0,0,1,2.68.28,18.47,18.47,0,0,0,2.67.28q5.58,0,5.58-8.36V191.55q0-7.92-8.14-7.92H35q-8,0-8,7.81c0,1.85,0,3.12.11,3.79l.45,4.12c.07.67.11,1.6.11,2.79q0,7-4.35,7-4.12,0-4.12-5.13c0-1,.07-2.64.22-5q.33-5.36.33-6.8c0-1.86-.06-3.79-.18-5.8q-.37-5.91-.37-5c0-3.12,1.4-4.68,4.22-4.68q1.56,0,7.24.34.55,0,9.12.44H52.43q2.22,0,11.9-.19,2.11,0,7.23-.29c3-.2,5.42-.3,7.13-.3,3.71,0,5.56,1.53,5.56,4.57v.23c0,.74-.09,2.11-.28,4.12s-.39,4.16-.61,6.46v1.23c0,1.12.11,2.86.33,5.24q.45,4.68.45,5.8c0,3-1.45,4.57-4.35,4.57s-4.23-1.87-4.23-5.6q0-2,.33-6c.22-2.65.34-4.65.34-6q0-7.73-8.81-7.73H64.3q-4.12,0-5.91,1.73c-1.19,1.15-1.86,3.07-2,5.74l-.44,7.8Z"/><path d="M111,219.19v14.49q0,5.58.11,6.58c.37,3.34,1.38,5,3,5a16.69,16.69,0,0,0,2.79-.55,4.68,4.68,0,0,1,1.67-.23q4.23,0,4.23,3.68a3.34,3.34,0,0,1-1.39,2.68,5.52,5.52,0,0,1-3.53,1.11,44.47,44.47,0,0,1-5.42-.5A42.48,42.48,0,0,0,107,251a54.08,54.08,0,0,0-6.48.44q-4.36.56-5.82.56-4.47,0-4.47-3.79t3.82-3.68a14.7,14.7,0,0,1,2.64.34,15.66,15.66,0,0,0,2.65.33c1.8,0,2.88-2.38,3.26-7.13V209.49q-.57-7-3.37-7a11.81,11.81,0,0,0-2.54.39,11.52,11.52,0,0,1-2.41.39q-4,0-4-3.57c0-2.52,1.63-3.79,4.9-3.79a25.78,25.78,0,0,1,3,.12c2.38.29,3.9.44,4.57.44a19.39,19.39,0,0,0,2.73-.28,21.38,21.38,0,0,1,2.73-.28q3.24,0,3.24,4.35c0,.3,0,.75-.09,1.34s-.09,1-.09,1.34q-.09.89-.18,6.91Q111,214.4,111,219.19ZM105.2,190A6.28,6.28,0,0,1,99,183.75a5.82,5.82,0,0,1,1.84-4.35,6.32,6.32,0,0,1,8.81,0,5.86,5.86,0,0,1,1.84,4.35A6.28,6.28,0,0,1,105.2,190Z"/><path d="M144.22,199.13v3.23a26.19,26.19,0,0,1,7.57-6.63,19.33,19.33,0,0,1,8.92-1.84q10.92,0,16,8.47a23.63,23.63,0,0,1,7.69-6.58,23.08,23.08,0,0,1,10-1.89,23.67,23.67,0,0,1,11.36,2.68,16.13,16.13,0,0,1,7.7,8.49q1.44,3.69,1.45,11.62v19.21c0,3.05,0,4.92.1,5.58q.56,4,2.88,4a10.47,10.47,0,0,0,2.31-.39,10.53,10.53,0,0,1,2.32-.39q3.87,0,3.87,3.34,0,3.9-4.46,3.9a48.74,48.74,0,0,1-5.07-.39,49.4,49.4,0,0,0-5.19-.39c-1.26,0-3.1.13-5.51.39s-4.26.39-5.52.39q-4.68,0-4.68-3.9c0-2.23,1.18-3.34,3.56-3.34.3,0,1,.07,2.23.22a5.8,5.8,0,0,0,1.79.22,2.27,2.27,0,0,0,2.39-1.89c.34-1.27.54-4.42.62-9.48V219.64q0-7.69-1.17-11.21a10,10,0,0,0-4.39-5.51,13.5,13.5,0,0,0-7.32-2q-7.89,0-11,5.46-2.45,4.35-2.44,15.16v7.92q0,10.47.5,13.09c.34,1.75,1.21,2.62,2.62,2.62a12,12,0,0,0,2-.22,12.14,12.14,0,0,1,1.95-.22,3.57,3.57,0,0,1,2.62,1,3.46,3.46,0,0,1,1.06,2.58q0,3.61-5.24,3.62a41.59,41.59,0,0,1-5-.44,39.84,39.84,0,0,0-5-.45,32.4,32.4,0,0,0-5.13.45,32.22,32.22,0,0,1-4.9.44q-4.58,0-4.57-3.79,0-3.45,3.34-3.45a4.6,4.6,0,0,1,1.9.31,9.16,9.16,0,0,0,2.34.47q2.67,0,2.79-5.72l.33-5.26V218.27q0-9.74-2.62-13.55T160,200.91q-7.35,0-11.25,5.38-3.24,4.36-3.24,15.23v14.9c0,3,0,4.74.11,5.27q.45,3.81,2.46,3.81a9.43,9.43,0,0,0,2.34-.63,2.36,2.36,0,0,0,.67-.15h.78q4.34,0,4.34,3.67t-5,3.57a40.73,40.73,0,0,1-4.68-.33,56.16,56.16,0,0,0-6.47-.45c-.89,0-2.53.11-4.9.34q-4.8.43-5.8.44-4.45,0-4.46-3.79,0-3.45,4.32-3.45h.68a3.41,3.41,0,0,0,.68.11l2.84.55a.61.61,0,0,0,.45.12q3.06,0,3.29-5.47v-23.4q0-9.48-.5-11.82a2.58,2.58,0,0,0-2.73-2.34,28.4,28.4,0,0,0-3.12.56,9.42,9.42,0,0,1-1.78.22q-4.12,0-4.13-3.57c0-2.52,1.52-3.79,4.57-3.79.82,0,1.93.08,3.35.23a35.13,35.13,0,0,0,3.67.22h2l2.68-.45h.33C143.32,195.89,144.22,197,144.22,199.13Z"/><path d="M281.54,218.74c0,2.83-.19,4.56-.56,5.19s-1.45.95-3.23.95H242.3a3.09,3.09,0,0,0-1.89.39,1.6,1.6,0,0,0-.45,1.28,20,20,0,0,0,5,13.93,16.63,16.63,0,0,0,21.46,2.9,12.26,12.26,0,0,0,5.29-6.8l1-3.23a3.46,3.46,0,0,1,3.68-2.68q4.13,0,4.13,4.24,0,7.25-7.36,12.87a26.82,26.82,0,0,1-16.72,5.63q-11.7,0-18.62-7.86t-6.91-21.12q0-13.6,7.36-22.07t19.17-8.47a23,23,0,0,1,17.28,7Q281.53,207.93,281.54,218.74Zm-40.46-2.89c0,1,.81,1.56,2.45,1.56h26.64q2.34,0,2.34-1.56a13.88,13.88,0,0,0-4.46-10.26,14.5,14.5,0,0,0-10.48-4.34,16.81,16.81,0,0,0-11.37,4.51Q241.08,210.28,241.08,215.85Z"/><path d="M298.37,253.41a6.58,6.58,0,0,1-4.9-2.06,7.12,7.12,0,0,1,0-9.92,6.86,6.86,0,0,1,9.8,0,7.12,7.12,0,0,1,0,9.92A6.58,6.58,0,0,1,298.37,253.41Z"/><path d="M350.42,214.73q0-4.46,5.58-5.13a8.72,8.72,0,0,0-3.74-6.13,14,14,0,0,0-8.19-2.22,14.8,14.8,0,0,0-12.37,6.13Q327,213.5,327,223.65q0,10.47,4.4,16.44a14.29,14.29,0,0,0,12.2,6,13.64,13.64,0,0,0,8.53-2.78,14,14,0,0,0,5-7.69c.74-2.6,1.19-4.09,1.34-4.46a3.86,3.86,0,0,1,3.57-2.23,4.18,4.18,0,0,1,4.34,4.34,16.63,16.63,0,0,1-1.78,6.69,23,23,0,0,1-4.24,6.47q-6.57,7-17,7-11.37,0-18.34-8t-7-21.06q0-13.81,7.19-22.13t19.11-8.3q8.93,0,14.83,4.85a15.26,15.26,0,0,1,5.9,12.31,10.11,10.11,0,0,1-2.28,6.8,7.32,7.32,0,0,1-5.85,2.68,6.65,6.65,0,0,1-4.63-1.67A5.39,5.39,0,0,1,350.42,214.73Z"/><path d="M400.47,253.41q-11.7,0-18.73-8.08t-7-21.68q0-13.6,7.08-21.68t19-8.08q12.15,0,19.17,7.91t7,21.51q0,13.6-7.25,21.85T400.47,253.41Zm.56-52.16q-7.81,0-12.26,5.46t-4.91,15.49v1.45q0,10.47,4.4,16.44t12.32,6q8.13,0,12.76-6T418,223.54Q418,201.25,401,201.25Z"/><path d="M452.41,199.13v3.23a26.21,26.21,0,0,1,7.58-6.63,19.3,19.3,0,0,1,8.92-1.84q10.92,0,16,8.47a23.53,23.53,0,0,1,7.69-6.58,23,23,0,0,1,10-1.89,23.69,23.69,0,0,1,11.37,2.68,16.11,16.11,0,0,1,7.69,8.49q1.46,3.69,1.45,11.62v19.21c0,3.05,0,4.92.11,5.58.37,2.69,1.32,4,2.87,4a10.44,10.44,0,0,0,2.32-.39,10.44,10.44,0,0,1,2.32-.39q3.86,0,3.86,3.34,0,3.9-4.46,3.9a49.13,49.13,0,0,1-5.07-.39,49.25,49.25,0,0,0-5.18-.39q-1.9,0-5.52.39c-2.42.26-4.25.39-5.52.39q-4.68,0-4.68-3.9,0-3.34,3.57-3.34c.29,0,1,.07,2.23.22a5.73,5.73,0,0,0,1.78.22,2.29,2.29,0,0,0,2.4-1.89c.33-1.27.54-4.42.61-9.48V219.64q0-7.69-1.16-11.21a10,10,0,0,0-4.39-5.51,13.56,13.56,0,0,0-7.33-2q-7.87,0-11,5.46-2.45,4.35-2.44,15.16v7.92q0,10.47.5,13.09c.33,1.75,1.2,2.62,2.62,2.62a12.26,12.26,0,0,0,2-.22,12,12,0,0,1,1.95-.22,3.57,3.57,0,0,1,2.62,1,3.49,3.49,0,0,1,1.05,2.58q0,3.61-5.23,3.62a41.42,41.42,0,0,1-5-.44,40.16,40.16,0,0,0-5-.45,32.3,32.3,0,0,0-5.13.45A32.34,32.34,0,0,1,474,252c-3,0-4.57-1.26-4.57-3.79q0-3.45,3.35-3.45a4.55,4.55,0,0,1,1.89.31,9.16,9.16,0,0,0,2.34.47q2.68,0,2.79-5.72l.34-5.26V218.27q0-9.74-2.63-13.55t-9.3-3.81q-7.37,0-11.26,5.38-3.24,4.36-3.23,15.23v14.9c0,3,0,4.74.11,5.27.3,2.54,1.11,3.81,2.45,3.81a9.43,9.43,0,0,0,2.34-.63,2.36,2.36,0,0,0,.67-.15h.78q4.35,0,4.35,3.67t-5,3.57a41,41,0,0,1-4.68-.33,56.15,56.15,0,0,0-6.46-.45c-.9,0-2.53.11-4.91.34-3.19.29-5.13.44-5.79.44-3,0-4.46-1.26-4.46-3.79,0-2.3,1.43-3.45,4.31-3.45h.68a3.52,3.52,0,0,0,.68.11l2.84.55a.65.65,0,0,0,.46.12q3.06,0,3.29-5.47v-23.4q0-9.48-.5-11.82a2.6,2.6,0,0,0-2.73-2.34A28.4,28.4,0,0,0,439,203a9.51,9.51,0,0,1-1.79.22q-4.12,0-4.12-3.57c0-2.52,1.52-3.79,4.57-3.79.81,0,1.93.08,3.34.23a35.3,35.3,0,0,0,3.68.22h2l2.67-.45h.34Q452.41,195.89,452.41,199.13Z"/></svg>